<?xml version="1.0" encoding="utf-8"?>
<!-- Generator: Adobe Illustrator 16.0.0, SVG Export Plug-In . SVG Version: 6.00 Build 0)  -->
<!DOCTYPE svg PUBLIC "-//W3C//DTD SVG 1.1//EN" "http://www.w3.org/Graphics/SVG/1.1/DTD/svg11.dtd">
<svg version="1.1" id="Layer_1" xmlns="http://www.w3.org/2000/svg" xmlns:xlink="http://www.w3.org/1999/xlink" x="0px" y="0px"
	 width="160px" height="75px" viewBox="0 0 160 75" enable-background="new 0 0 160 75" xml:space="preserve">
<g id="logo_1_">
	<g>
		<g>
			<g>
				<g>
					<path fill="#FFFFFF" d="M28.761,13.117c-14.675,0-26.681,12.005-26.681,26.681c0,14.674,12.006,26.68,26.681,26.68
						c14.674,0,26.68-12.006,26.68-26.68C55.441,25.123,43.568,13.117,28.761,13.117z M41.034,51.669
						c-0.534,0.802-1.467,1.068-2.269,0.535c-6.271-3.868-14.14-4.67-23.478-2.534c-0.934,0.267-1.735-0.4-2.001-1.202
						c-0.266-0.934,0.4-1.732,1.2-2.001c10.139-2.268,18.944-1.334,25.881,2.935C41.301,49.802,41.434,50.87,41.034,51.669z
						 M44.236,44.333c-0.668,0.934-1.868,1.334-2.803,0.667c-7.204-4.403-18.143-5.736-26.547-3.068
						c-1.066,0.266-2.268-0.267-2.534-1.335c-0.267-1.066,0.267-2.267,1.333-2.533c9.739-2.935,21.746-1.468,30.017,3.602
						C44.503,42.065,44.903,43.399,44.236,44.333z M44.503,36.861c-8.538-5.068-22.813-5.602-30.95-3.066
						c-1.334,0.399-2.668-0.401-3.068-1.602c-0.4-1.333,0.399-2.667,1.601-3.068c9.472-2.801,25.08-2.268,34.952,3.602
						c1.201,0.667,1.601,2.268,0.933,3.468C47.303,37.129,45.703,37.53,44.503,36.861z"/>
				</g>
			</g>
		</g>
	</g>
</g>
<g>
	<g>
		<g>
			<g>
				<path fill="#FFFFFF" d="M67.538,48.668l1.931-2.604c1.352,1.447,3.378,2.703,6.079,2.703c2.8,0,3.861-1.352,3.861-2.703
					c0-4.054-11.195-1.545-11.195-8.59c0-3.184,2.8-5.693,7.046-5.693c2.992,0,5.405,0.965,7.238,2.702l-1.931,2.51
					c-1.543-1.545-3.57-2.22-5.597-2.22c-1.931,0-3.282,0.964-3.282,2.413c0,3.666,11.196,1.352,11.196,8.59
					c0,3.184-2.316,5.982-7.432,5.982C71.784,51.757,69.274,50.503,67.538,48.668z"/>
				<path fill="#FFFFFF" d="M88.867,49.439v7.24h-2.992V37.377h2.992v1.93c1.062-1.351,2.702-2.22,4.535-2.22
					c3.668,0,6.178,2.703,6.178,7.335s-2.606,7.334-6.178,7.334C91.666,51.757,90.024,50.889,88.867,49.439z M96.49,44.423
					c0-2.702-1.544-4.633-3.956-4.633c-1.448,0-2.896,0.771-3.571,1.832v5.503c0.676,1.062,2.123,1.931,3.571,1.931
					C94.946,49.056,96.49,47.125,96.49,44.423z"/>
				<path fill="#FFFFFF" d="M101.8,44.423c0-4.054,2.702-7.335,7.142-7.335s7.142,3.282,7.142,7.335
					c0,3.958-2.702,7.334-7.142,7.334S101.8,48.381,101.8,44.423z M112.995,44.423c0-2.413-1.448-4.633-4.054-4.633
					c-2.606,0-4.054,2.124-4.054,4.633s1.447,4.633,4.054,4.633C111.547,49.056,112.995,46.835,112.995,44.423z"/>
				<path fill="#FFFFFF" d="M119.848,48.091v-8.012h-2.317v-2.606h2.317v-3.86h3.089v3.86h2.797v2.606h-2.797v7.336
					c0,0.966,0.482,1.641,1.351,1.641c0.579,0,1.061-0.289,1.351-0.483l0.772,2.316c-0.578,0.482-1.448,0.868-2.799,0.868
					C121.102,51.757,119.848,50.503,119.848,48.091z"/>
				<path fill="#FFFFFF" d="M128.146,33.807c0-1.062,0.869-1.93,1.931-1.93c1.063,0,1.834,0.869,1.834,1.93
					c0,1.061-0.868,1.833-1.834,1.833C129.112,35.64,128.146,34.868,128.146,33.807z M128.532,51.371V37.377h3.09v13.994H128.532z"
					/>
				<path fill="#FFFFFF" d="M136.255,51.371V40.079h-2.315v-2.606h2.315v-0.771c0-2.992,1.738-4.825,4.438-4.825
					c1.255,0,2.511,0.29,3.378,1.254l-1.157,1.834c-0.387-0.386-0.966-0.58-1.545-0.58c-1.254,0-1.93,0.772-1.93,2.316v0.771h2.799
					v2.606h-2.799v11.39h-3.185V51.371z"/>
				<path fill="#FFFFFF" d="M144.266,54.171c0.288,0.192,0.771,0.192,1.158,0.192c0.965,0,1.64-0.29,2.025-1.256l0.676-1.639
					l-5.791-14.188h3.281l4.055,10.52l4.054-10.52h3.282l-6.756,16.502c-0.966,2.413-2.606,3.088-4.73,3.187
					c-0.482,0-1.254-0.099-1.736-0.194L144.266,54.171z"/>
			</g>
		</g>
	</g>
</g>
</svg>
